<svg width="23" height="25" viewBox="0 0 23 25" fill="none" xmlns="http://www.w3.org/2000/svg">
<path d="M22.6453 8.30938C22.7953 8.71719 22.6687 9.17187 22.3453 9.4625L20.3156 11.3094C20.3672 11.6984 20.3953 12.0969 20.3953 12.5C20.3953 12.9031 20.3672 13.3016 20.3156 13.6906L22.3453 15.5375C22.6687 15.8281 22.7953 16.2828 22.6453 16.6906C22.4391 17.2484 22.1906 17.7828 21.9047 18.2984L21.6844 18.6781C21.375 19.1937 21.0281 19.6812 20.6484 20.1406C20.3719 20.4781 19.9125 20.5906 19.5 20.4594L16.8891 19.6297C16.2609 20.1125 15.5672 20.5156 14.8266 20.8203L14.2406 23.4969C14.1469 23.9234 13.8187 24.2609 13.3875 24.3312C12.7406 24.4391 12.075 24.4953 11.3953 24.4953C10.7156 24.4953 10.05 24.4391 9.40311 24.3312C8.97186 24.2609 8.64374 23.9234 8.54999 23.4969L7.96405 20.8203C7.22343 20.5156 6.52968 20.1125 5.90155 19.6297L3.2953 20.4641C2.8828 20.5953 2.42343 20.4781 2.14686 20.1453C1.76718 19.6859 1.4203 19.1984 1.11093 18.6828L0.890613 18.3031C0.604675 17.7875 0.356238 17.2531 0.149988 16.6953C-1.23712e-05 16.2875 0.12655 15.8328 0.449988 15.5422L2.47968 13.6953C2.42811 13.3016 2.39999 12.9031 2.39999 12.5C2.39999 12.0969 2.42811 11.6984 2.47968 11.3094L0.449988 9.4625C0.12655 9.17187 -1.23712e-05 8.71719 0.149988 8.30938C0.356238 7.75156 0.604675 7.21719 0.890613 6.70156L1.11093 6.32187C1.4203 5.80625 1.76718 5.31875 2.14686 4.85938C2.42343 4.52188 2.8828 4.40937 3.2953 4.54062L5.90624 5.37031C6.53436 4.8875 7.22811 4.48438 7.96874 4.17969L8.55468 1.50312C8.64843 1.07656 8.97655 0.739062 9.4078 0.66875C10.0547 0.55625 10.7203 0.5 11.4 0.5C12.0797 0.5 12.7453 0.55625 13.3922 0.664062C13.8234 0.734375 14.1516 1.07187 14.2453 1.49844L14.8312 4.175C15.5719 4.47969 16.2656 4.88281 16.8937 5.36563L19.5047 4.53594C19.9172 4.40469 20.3766 4.52188 20.6531 4.85469C21.0328 5.31406 21.3797 5.80156 21.6891 6.31719L21.9094 6.69687C22.1953 7.2125 22.4437 7.74688 22.65 8.30469L22.6453 8.30938ZM11.4 16.25C12.3946 16.25 13.3484 15.8549 14.0516 15.1517C14.7549 14.4484 15.15 13.4946 15.15 12.5C15.15 11.5054 14.7549 10.5516 14.0516 9.84835C13.3484 9.14509 12.3946 8.75 11.4 8.75C10.4054 8.75 9.4516 9.14509 8.74834 9.84835C8.04508 10.5516 7.64999 11.5054 7.64999 12.5C7.64999 13.4946 8.04508 14.4484 8.74834 15.1517C9.4516 15.8549 10.4054 16.25 11.4 16.25Z" fill="#484C52"/>
</svg>
