<svg width="24" height="23" viewBox="0 0 24 23" fill="none" xmlns="http://www.w3.org/2000/svg">
<path d="M23.9917 11.4775C23.9917 12.2861 23.3667 12.9195 22.6583 12.9195H21.325L21.3542 20.116C21.3542 20.2373 21.3458 20.3586 21.3333 20.4799V21.2031C21.3333 22.1959 20.5875 23 19.6667 23H19C18.9542 23 18.9083 23 18.8625 22.9955C18.8042 23 18.7458 23 18.6875 23H17.3333H16.3333C15.4125 23 14.6667 22.1959 14.6667 21.2031V20.125V17.25C14.6667 16.4549 14.0708 15.8125 13.3333 15.8125H10.6667C9.92917 15.8125 9.33333 16.4549 9.33333 17.25V20.125V21.2031C9.33333 22.1959 8.5875 23 7.66667 23H6.66667H5.3375C5.275 23 5.2125 22.9955 5.15 22.991C5.1 22.9955 5.05 23 5 23H4.33333C3.4125 23 2.66667 22.1959 2.66667 21.2031V16.1719C2.66667 16.1314 2.66667 16.0865 2.67083 16.0461V12.9195H1.33333C0.583333 12.9195 0 12.2906 0 11.4775C0 11.0732 0.125 10.7139 0.416667 10.3994L11.1 0.359375C11.3917 0.0449219 11.725 0 12.0167 0C12.3083 0 12.6417 0.0898438 12.8917 0.314453L23.5333 10.3994C23.8667 10.7139 24.0333 11.0732 23.9917 11.4775Z" fill="#484C52"/>
</svg>
