<svg width="20" height="16" viewBox="0 0 20 16" fill="none" xmlns="http://www.w3.org/2000/svg">
<path d="M1.0625 0.28125C0.542969 0.28125 0.125 0.67832 0.125 1.17188V2.95312C0.125 3.44668 0.542969 3.84375 1.0625 3.84375H2.9375C3.45703 3.84375 3.875 3.44668 3.875 2.95312V1.17188C3.875 0.67832 3.45703 0.28125 2.9375 0.28125H1.0625ZM7 0.875C6.30859 0.875 5.75 1.40566 5.75 2.0625C5.75 2.71934 6.30859 3.25 7 3.25H18.25C18.9414 3.25 19.5 2.71934 19.5 2.0625C19.5 1.40566 18.9414 0.875 18.25 0.875H7ZM7 6.8125C6.30859 6.8125 5.75 7.34316 5.75 8C5.75 8.65684 6.30859 9.1875 7 9.1875H18.25C18.9414 9.1875 19.5 8.65684 19.5 8C19.5 7.34316 18.9414 6.8125 18.25 6.8125H7ZM7 12.75C6.30859 12.75 5.75 13.2807 5.75 13.9375C5.75 14.5943 6.30859 15.125 7 15.125H18.25C18.9414 15.125 19.5 14.5943 19.5 13.9375C19.5 13.2807 18.9414 12.75 18.25 12.75H7ZM0.125 7.10938V8.89062C0.125 9.38418 0.542969 9.78125 1.0625 9.78125H2.9375C3.45703 9.78125 3.875 9.38418 3.875 8.89062V7.10938C3.875 6.61582 3.45703 6.21875 2.9375 6.21875H1.0625C0.542969 6.21875 0.125 6.61582 0.125 7.10938ZM1.0625 12.1562C0.542969 12.1562 0.125 12.5533 0.125 13.0469V14.8281C0.125 15.3217 0.542969 15.7188 1.0625 15.7188H2.9375C3.45703 15.7188 3.875 15.3217 3.875 14.8281V13.0469C3.875 12.5533 3.45703 12.1562 2.9375 12.1562H1.0625Z" fill="#484C52"/>
</svg>
