<?xml version="1.0" standalone="no"?>
<!DOCTYPE svg PUBLIC "-//W3C//DTD SVG 20010904//EN"
 "http://www.w3.org/TR/2001/REC-SVG-20010904/DTD/svg10.dtd">
<svg version="1.0" xmlns="http://www.w3.org/2000/svg"
 width="1671.000000pt" height="1671.000000pt" viewBox="0 0 1671.000000 1671.000000"
 preserveAspectRatio="xMidYMid meet">

<g transform="translate(0.000000,1671.000000) scale(0.100000,-0.100000)"
fill="#000000" stroke="none">
<path d="M8105 15309 c-771 -25 -1565 -188 -2290 -472 -1384 -541 -2561 -1512
-3342 -2757 -713 -1138 -1074 -2389 -1074 -3725 0 -1109 244 -2144 739 -3131
672 -1340 1746 -2414 3086 -3086 987 -495 2022 -739 3131 -739 538 0 1018 52
1534 167 1777 396 3362 1506 4326 3029 729 1151 1096 2411 1096 3760 0 1336
-361 2587 -1074 3725 -597 951 -1445 1764 -2418 2316 -1143 648 -2391 955
-3714 913z m630 -1394 c227 -17 388 -36 555 -65 1031 -183 1974 -634 2735
-1309 977 -866 1599 -1975 1825 -3251 105 -599 104 -1287 -4 -1890 -147 -818
-457 -1564 -930 -2240 -357 -511 -854 -1007 -1366 -1366 -360 -252 -790 -483
-1174 -631 -1328 -510 -2714 -510 -4042 0 -573 220 -1172 584 -1639 996 -975
861 -1602 1971 -1831 3241 -161 895 -87 1858 210 2725 288 844 714 1530 1336
2155 445 447 913 787 1455 1057 898 449 1899 650 2870 578z" fill="#484C52"/>
<path d="M6151 9039 c-74 -11 -198 -57 -261 -97 -131 -83 -243 -233 -287 -385
-34 -114 -35 -277 -3 -395 48 -178 185 -345 345 -422 168 -82 -60 -75 2410
-75 2470 0 2242 -7 2410 75 160 77 297 244 345 422 32 115 32 271 0 386 -48
178 -185 345 -345 422 -169 82 66 75 -2375 76 -1280 1 -2201 -2 -2239 -7z" fill="#484C52"/>
</g>
</svg>
