<svg width="22" height="21" viewBox="0 0 22 21" fill="none" xmlns="http://www.w3.org/2000/svg">
<path d="M17.3624 8.53125C17.3624 10.4139 16.7513 12.1529 15.7218 13.5639L20.9144 18.7605C21.4271 19.2732 21.4271 20.1059 20.9144 20.6186C20.4017 21.1313 19.5691 21.1313 19.0564 20.6186L13.8638 15.4219C12.4529 16.4555 10.7138 17.0625 8.83118 17.0625C4.11848 17.0625 0.299927 13.2439 0.299927 8.53125C0.299927 3.81855 4.11848 0 8.83118 0C13.5439 0 17.3624 3.81855 17.3624 8.53125ZM8.83118 14.4375C9.6068 14.4375 10.3748 14.2847 11.0914 13.9879C11.808 13.6911 12.4591 13.256 13.0075 12.7076C13.556 12.1592 13.991 11.5081 14.2878 10.7915C14.5847 10.0749 14.7374 9.30687 14.7374 8.53125C14.7374 7.75563 14.5847 6.98761 14.2878 6.27103C13.991 5.55445 13.556 4.90335 13.0075 4.3549C12.4591 3.80645 11.808 3.3714 11.0914 3.07459C10.3748 2.77777 9.6068 2.625 8.83118 2.625C8.05556 2.625 7.28753 2.77777 6.57095 3.07459C5.85437 3.3714 5.20327 3.80645 4.65483 4.3549C4.10638 4.90335 3.67133 5.55445 3.37451 6.27103C3.0777 6.98761 2.92493 7.75563 2.92493 8.53125C2.92493 9.30687 3.0777 10.0749 3.37451 10.7915C3.67133 11.5081 4.10638 12.1592 4.65483 12.7076C5.20327 13.256 5.85437 13.6911 6.57095 13.9879C7.28753 14.2847 8.05556 14.4375 8.83118 14.4375Z" fill="#484C52"/>
</svg>
