<svg width="25" height="25" viewBox="0 0 25 25" fill="none" xmlns="http://www.w3.org/2000/svg">
<g clip-path="url(#clip0_125_199)">
<path d="M15.9515 4.49375C15.7406 4.57344 15.6 4.775 15.6 5C15.6 5.225 15.7406 5.42656 15.9515 5.50625L18.6 6.5L19.5937 9.14844C19.6734 9.35938 19.875 9.5 20.1 9.5C20.325 9.5 20.5265 9.35938 20.6062 9.14844L21.6 6.5L24.2484 5.50625C24.4594 5.42656 24.6 5.225 24.6 5C24.6 4.775 24.4594 4.57344 24.2484 4.49375L21.6 3.5L20.6062 0.851562C20.5265 0.640625 20.325 0.5 20.1 0.5C19.875 0.5 19.6734 0.640625 19.5937 0.851562L18.6 3.5L15.9515 4.49375ZM10.214 3.93594C10.0922 3.66875 9.82498 3.5 9.53435 3.5C9.24373 3.5 8.97654 3.66875 8.85466 3.93594L6.37966 9.27969L1.03591 11.75C0.768726 11.8719 0.599976 12.1391 0.599976 12.4344C0.599976 12.7297 0.768726 12.9922 1.03591 13.1141L6.38435 15.5844L8.84998 20.9281C8.97185 21.1953 9.23904 21.3641 9.52966 21.3641C9.82029 21.3641 10.0875 21.1953 10.2094 20.9281L12.6797 15.5797L18.0281 13.1094C18.2953 12.9875 18.464 12.7203 18.464 12.4297C18.464 12.1391 18.2953 11.8719 18.0281 11.75L12.6844 9.28437L10.214 3.93594ZM18.6 18.5L15.9515 19.4938C15.7406 19.5734 15.6 19.775 15.6 20C15.6 20.225 15.7406 20.4266 15.9515 20.5062L18.6 21.5L19.5937 24.1484C19.6734 24.3594 19.875 24.5 20.1 24.5C20.325 24.5 20.5265 24.3594 20.6062 24.1484L21.6 21.5L24.2484 20.5062C24.4594 20.4266 24.6 20.225 24.6 20C24.6 19.775 24.4594 19.5734 24.2484 19.4938L21.6 18.5L20.6062 15.8516C20.5265 15.6406 20.325 15.5 20.1 15.5C19.875 15.5 19.6734 15.6406 19.5937 15.8516L18.6 18.5Z" fill="#484C52"/>
</g>
<defs>
<clipPath id="clip0_125_199">
<rect width="24" height="24" fill="white" transform="translate(0.599976 0.5)"/>
</clipPath>
</defs>
</svg>
