<svg width="22" height="22" viewBox="0 0 22 22" fill="none" xmlns="http://www.w3.org/2000/svg">
<path d="M11.0004 0C11.3839 0 11.734 0.223421 11.9008 0.580034L14.7604 6.65106L21.1465 7.62208C21.5217 7.67794 21.8343 7.94862 21.951 8.32242C22.0678 8.69622 21.9719 9.10009 21.7051 9.37507L17.0739 14.1099L18.166 20.7953C18.2286 21.182 18.0743 21.573 17.7617 21.805C17.449 22.037 17.0405 22.0628 16.7071 21.878L10.9962 18.733L5.29367 21.8737C4.95602 22.0585 4.54751 22.0327 4.23904 21.8007C3.93057 21.5687 3.77216 21.1777 3.83469 20.791L4.92684 14.1056L0.295624 9.37507C0.0246708 9.10009 -0.0670365 8.69192 0.0496819 8.32242C0.1664 7.95292 0.479038 7.68223 0.854204 7.62208L7.24036 6.65106L10.1 0.580034C10.2709 0.223421 10.6169 0 11.0004 0ZM11.0004 3.39428L8.81189 8.04314C8.66599 8.3482 8.3867 8.56303 8.05739 8.61458L3.12604 9.36218L6.70679 13.0185C6.93606 13.2549 7.04444 13.59 6.99025 13.9208L6.14404 19.0638L10.5293 16.6491C10.8253 16.4859 11.1796 16.4859 11.4714 16.6491L15.8567 19.0638L15.0146 13.9251C14.9604 13.5943 15.0647 13.2592 15.2981 13.0228L18.8788 9.36648L13.9475 8.61458C13.6224 8.56303 13.3389 8.35249 13.193 8.04314L11.0004 3.39428Z" fill="#484C52"/>
</svg>
