<svg width="25" height="25" viewBox="0 0 25 25" fill="none" xmlns="http://www.w3.org/2000/svg">
<path d="M13.5056 1.34366C13.2648 0.828088 12.7557 0.5 12.1967 0.5C11.6377 0.5 11.1332 0.828088 10.8877 1.34366L7.96532 7.54452L1.43875 8.53816C0.893352 8.62253 0.438855 9.01623 0.270691 9.55524C0.102527 10.0942 0.238876 10.6895 0.629743 11.0879L5.3656 15.9201L4.24754 22.7491C4.15664 23.3115 4.38389 23.8833 4.83384 24.2161C5.28379 24.5489 5.87918 24.5911 6.37004 24.3239L12.2012 21.1133L18.0324 24.3239C18.5233 24.5911 19.1187 24.5536 19.5686 24.2161C20.0186 23.8786 20.2458 23.3115 20.1549 22.7491L19.0323 15.9201L23.7682 11.0879C24.159 10.6895 24.2999 10.0942 24.1272 9.55524C23.9545 9.01623 23.5046 8.62253 22.9592 8.53816L16.4281 7.54452L13.5056 1.34366Z" fill="#484C52"/>
</svg>
